<mxfile host="65bd71144e">
    <diagram id="JuBVkQanY2CeFXd4BMPf" name="Page-1">
        <mxGraphModel dx="850" dy="686" grid="1" gridSize="10" guides="1" tooltips="1" connect="1" arrows="1" fold="1" page="1" pageScale="1" pageWidth="850" pageHeight="1100" math="0" shadow="0">
            <root>
                <mxCell id="0"/>
                <mxCell id="1" parent="0"/>
                <mxCell id="2" value="PersonagemBuilder" style="swimlane;" vertex="1" parent="1">
                    <mxGeometry x="200" y="130" width="200" height="280" as="geometry"/>
                </mxCell>
                <mxCell id="3" value="-personagem: Personagem" style="text;html=1;align=center;verticalAlign=middle;resizable=0;points=[];autosize=1;strokeColor=none;fillColor=none;" vertex="1" parent="2">
                    <mxGeometry y="20" width="170" height="30" as="geometry"/>
                </mxCell>
                <mxCell id="7" value="-id()" style="text;html=1;align=center;verticalAlign=middle;resizable=0;points=[];autosize=1;strokeColor=none;fillColor=none;" vertex="1" parent="2">
                    <mxGeometry x="-10" y="70" width="40" height="30" as="geometry"/>
                </mxCell>
                <mxCell id="9" value="-nome()" style="text;html=1;align=center;verticalAlign=middle;resizable=0;points=[];autosize=1;strokeColor=none;fillColor=none;" vertex="1" parent="2">
                    <mxGeometry x="-15" y="90" width="70" height="30" as="geometry"/>
                </mxCell>
                <mxCell id="10" value="-forca()" style="text;html=1;align=center;verticalAlign=middle;resizable=0;points=[];autosize=1;strokeColor=none;fillColor=none;" vertex="1" parent="2">
                    <mxGeometry x="-10" y="110" width="60" height="30" as="geometry"/>
                </mxCell>
                <mxCell id="13" value="-destreza()" style="text;html=1;align=center;verticalAlign=middle;resizable=0;points=[];autosize=1;strokeColor=none;fillColor=none;" vertex="1" parent="2">
                    <mxGeometry x="-10" y="150" width="80" height="30" as="geometry"/>
                </mxCell>
                <mxCell id="14" value="-inteligencia()" style="text;html=1;align=center;verticalAlign=middle;resizable=0;points=[];autosize=1;strokeColor=none;fillColor=none;" vertex="1" parent="2">
                    <mxGeometry x="-15" y="130" width="100" height="30" as="geometry"/>
                </mxCell>
                <mxCell id="15" value="-constituicao()" style="text;html=1;align=center;verticalAlign=middle;resizable=0;points=[];autosize=1;strokeColor=none;fillColor=none;" vertex="1" parent="2">
                    <mxGeometry x="-10" y="170" width="100" height="30" as="geometry"/>
                </mxCell>
                <mxCell id="16" value="-sabedoria()" style="text;html=1;align=center;verticalAlign=middle;resizable=0;points=[];autosize=1;strokeColor=none;fillColor=none;" vertex="1" parent="2">
                    <mxGeometry x="-10" y="190" width="90" height="30" as="geometry"/>
                </mxCell>
                <mxCell id="17" value="-carisma()" style="text;html=1;align=center;verticalAlign=middle;resizable=0;points=[];autosize=1;strokeColor=none;fillColor=none;" vertex="1" parent="2">
                    <mxGeometry x="-10" y="210" width="80" height="30" as="geometry"/>
                </mxCell>
                <mxCell id="4" value="" style="endArrow=none;html=1;exitX=-0.008;exitY=1.086;exitDx=0;exitDy=0;exitPerimeter=0;startArrow=none;" edge="1" parent="1" source="3">
                    <mxGeometry width="50" height="50" relative="1" as="geometry">
                        <mxPoint x="290" y="240" as="sourcePoint"/>
                        <mxPoint x="400" y="183" as="targetPoint"/>
                    </mxGeometry>
                </mxCell>
                <mxCell id="5" value="+build()" style="text;html=1;align=center;verticalAlign=middle;resizable=0;points=[];autosize=1;strokeColor=none;fillColor=none;" vertex="1" parent="1">
                    <mxGeometry x="190" y="180" width="60" height="30" as="geometry"/>
                </mxCell>
                <mxCell id="18" value="" style="endArrow=none;html=1;exitX=0.008;exitY=1.133;exitDx=0;exitDy=0;exitPerimeter=0;" edge="1" parent="1" source="3" target="5">
                    <mxGeometry width="50" height="50" relative="1" as="geometry">
                        <mxPoint x="201.36000000000013" y="183.99" as="sourcePoint"/>
                        <mxPoint x="400" y="184" as="targetPoint"/>
                    </mxGeometry>
                </mxCell>
                <mxCell id="23" value="Personagem" style="swimlane;" vertex="1" parent="1">
                    <mxGeometry x="630" y="130" width="200" height="530" as="geometry"/>
                </mxCell>
                <mxCell id="24" value="-id: Int" style="text;html=1;align=center;verticalAlign=middle;resizable=0;points=[];autosize=1;strokeColor=none;fillColor=none;" vertex="1" parent="23">
                    <mxGeometry x="-13" y="20" width="60" height="30" as="geometry"/>
                </mxCell>
                <mxCell id="25" value="-nome: String" style="text;html=1;align=center;verticalAlign=middle;resizable=0;points=[];autosize=1;strokeColor=none;fillColor=none;" vertex="1" parent="23">
                    <mxGeometry x="-13" y="41" width="100" height="30" as="geometry"/>
                </mxCell>
                <mxCell id="26" value="-forca: Int" style="text;html=1;align=center;verticalAlign=middle;resizable=0;points=[];autosize=1;strokeColor=none;fillColor=none;" vertex="1" parent="23">
                    <mxGeometry x="-10" y="59" width="70" height="30" as="geometry"/>
                </mxCell>
                <mxCell id="29" value="-destreza: Int" style="text;html=1;align=center;verticalAlign=middle;resizable=0;points=[];autosize=1;strokeColor=none;fillColor=none;" vertex="1" parent="23">
                    <mxGeometry x="-10" y="80" width="90" height="30" as="geometry"/>
                </mxCell>
                <mxCell id="30" value="-constituicao: Int" style="text;html=1;align=center;verticalAlign=middle;resizable=0;points=[];autosize=1;strokeColor=none;fillColor=none;" vertex="1" parent="23">
                    <mxGeometry x="-10" y="100" width="110" height="30" as="geometry"/>
                </mxCell>
                <mxCell id="31" value="-inteligencia: Int" style="text;html=1;align=center;verticalAlign=middle;resizable=0;points=[];autosize=1;strokeColor=none;fillColor=none;" vertex="1" parent="23">
                    <mxGeometry x="-10" y="120" width="110" height="30" as="geometry"/>
                </mxCell>
                <mxCell id="32" value="-sabedoria: Int" style="text;html=1;align=center;verticalAlign=middle;resizable=0;points=[];autosize=1;strokeColor=none;fillColor=none;" vertex="1" parent="23">
                    <mxGeometry x="-10" y="140" width="100" height="30" as="geometry"/>
                </mxCell>
                <mxCell id="33" value="-carisma: Int" style="text;html=1;align=center;verticalAlign=middle;resizable=0;points=[];autosize=1;strokeColor=none;fillColor=none;" vertex="1" parent="23">
                    <mxGeometry x="-10" y="160" width="90" height="30" as="geometry"/>
                </mxCell>
                <mxCell id="35" value="+getId()" style="text;html=1;align=center;verticalAlign=middle;resizable=0;points=[];autosize=1;strokeColor=none;fillColor=none;" vertex="1" parent="23">
                    <mxGeometry x="-10" y="210" width="70" height="30" as="geometry"/>
                </mxCell>
                <mxCell id="36" value="+getNome()" style="text;html=1;align=center;verticalAlign=middle;resizable=0;points=[];autosize=1;strokeColor=none;fillColor=none;" vertex="1" parent="23">
                    <mxGeometry x="-10" y="230" width="90" height="30" as="geometry"/>
                </mxCell>
                <mxCell id="37" value="+getForca()" style="text;html=1;align=center;verticalAlign=middle;resizable=0;points=[];autosize=1;strokeColor=none;fillColor=none;" vertex="1" parent="23">
                    <mxGeometry x="-11" y="251" width="90" height="30" as="geometry"/>
                </mxCell>
                <mxCell id="38" value="+getDestreza()" style="text;html=1;align=center;verticalAlign=middle;resizable=0;points=[];autosize=1;strokeColor=none;fillColor=none;" vertex="1" parent="23">
                    <mxGeometry x="-9" y="270" width="100" height="30" as="geometry"/>
                </mxCell>
                <mxCell id="39" value="+getConstituicao()" style="text;html=1;align=center;verticalAlign=middle;resizable=0;points=[];autosize=1;strokeColor=none;fillColor=none;" vertex="1" parent="23">
                    <mxGeometry x="-10" y="290" width="120" height="30" as="geometry"/>
                </mxCell>
                <mxCell id="40" value="+getInteligencia()" style="text;html=1;align=center;verticalAlign=middle;resizable=0;points=[];autosize=1;strokeColor=none;fillColor=none;" vertex="1" parent="23">
                    <mxGeometry x="-13" y="310" width="120" height="30" as="geometry"/>
                </mxCell>
                <mxCell id="42" value="+getCarisma()" style="text;html=1;align=center;verticalAlign=middle;resizable=0;points=[];autosize=1;strokeColor=none;fillColor=none;" vertex="1" parent="23">
                    <mxGeometry x="-10" y="350" width="100" height="30" as="geometry"/>
                </mxCell>
                <mxCell id="41" value="+getSabedoria()" style="text;html=1;align=center;verticalAlign=middle;resizable=0;points=[];autosize=1;strokeColor=none;fillColor=none;" vertex="1" parent="23">
                    <mxGeometry x="-11" y="330" width="110" height="30" as="geometry"/>
                </mxCell>
                <mxCell id="34" value="" style="endArrow=none;html=1;" edge="1" parent="1">
                    <mxGeometry width="50" height="50" relative="1" as="geometry">
                        <mxPoint x="630" y="330" as="sourcePoint"/>
                        <mxPoint x="830" y="330" as="targetPoint"/>
                    </mxGeometry>
                </mxCell>
                <mxCell id="43" value="+setId()" style="text;html=1;align=center;verticalAlign=middle;resizable=0;points=[];autosize=1;strokeColor=none;fillColor=none;" vertex="1" parent="1">
                    <mxGeometry x="621" y="502" width="60" height="30" as="geometry"/>
                </mxCell>
                <mxCell id="44" value="+setNome()" style="text;html=1;align=center;verticalAlign=middle;resizable=0;points=[];autosize=1;strokeColor=none;fillColor=none;" vertex="1" parent="1">
                    <mxGeometry x="619" y="516" width="90" height="30" as="geometry"/>
                </mxCell>
                <mxCell id="45" value="+setForca()" style="text;html=1;align=center;verticalAlign=middle;resizable=0;points=[];autosize=1;strokeColor=none;fillColor=none;" vertex="1" parent="1">
                    <mxGeometry x="618" y="537" width="90" height="30" as="geometry"/>
                </mxCell>
                <mxCell id="46" value="+setDestreza()" style="text;html=1;align=center;verticalAlign=middle;resizable=0;points=[];autosize=1;strokeColor=none;fillColor=none;" vertex="1" parent="1">
                    <mxGeometry x="620" y="556" width="100" height="30" as="geometry"/>
                </mxCell>
                <mxCell id="47" value="+setConstituicao()" style="text;html=1;align=center;verticalAlign=middle;resizable=0;points=[];autosize=1;strokeColor=none;fillColor=none;" vertex="1" parent="1">
                    <mxGeometry x="619" y="576" width="120" height="30" as="geometry"/>
                </mxCell>
                <mxCell id="48" value="+setInteligencia()" style="text;html=1;align=center;verticalAlign=middle;resizable=0;points=[];autosize=1;strokeColor=none;fillColor=none;" vertex="1" parent="1">
                    <mxGeometry x="616" y="596" width="120" height="30" as="geometry"/>
                </mxCell>
                <mxCell id="49" value="+setCarisma()" style="text;html=1;align=center;verticalAlign=middle;resizable=0;points=[];autosize=1;strokeColor=none;fillColor=none;" vertex="1" parent="1">
                    <mxGeometry x="619" y="636" width="100" height="30" as="geometry"/>
                </mxCell>
                <mxCell id="50" value="+setSabedoria()" style="text;html=1;align=center;verticalAlign=middle;resizable=0;points=[];autosize=1;strokeColor=none;fillColor=none;" vertex="1" parent="1">
                    <mxGeometry x="618" y="616" width="110" height="30" as="geometry"/>
                </mxCell>
                <mxCell id="53" value="" style="endArrow=none;html=1;exitX=1;exitY=0.5;exitDx=0;exitDy=0;" edge="1" parent="1" source="2" target="23">
                    <mxGeometry width="50" height="50" relative="1" as="geometry">
                        <mxPoint x="510" y="360" as="sourcePoint"/>
                        <mxPoint x="580" y="370" as="targetPoint"/>
                    </mxGeometry>
                </mxCell>
                <mxCell id="54" value="1" style="text;html=1;align=center;verticalAlign=middle;resizable=0;points=[];autosize=1;strokeColor=none;fillColor=none;" vertex="1" parent="1">
                    <mxGeometry x="591" y="350" width="30" height="30" as="geometry"/>
                </mxCell>
            </root>
        </mxGraphModel>
    </diagram>
</mxfile>